HIERARCHY
ROOT Hips
{
	OFFSET 0.000000 0.000000 0.000000 
	CHANNELS 6 Xposition Yposition Zposition Zrotation Yrotation Xrotation
	JOINT LeftUpLeg
	{
		OFFSET 1.363060 -1.794630 0.839290 
		CHANNELS 3 Zrotation Yrotation Xrotation
		JOINT LeftLeg
		{
			OFFSET 2.448110 -6.726130 0.000000 
			CHANNELS 3 Zrotation Yrotation Xrotation
			JOINT LeftFoot
			{
				OFFSET 2.562200 -7.039590 0.000000 
				CHANNELS 3 Zrotation Yrotation Xrotation
				JOINT LeftToeBase
				{
					OFFSET 0.157640 -0.433110 2.322550 
					CHANNELS 3 Zrotation Yrotation Xrotation
					End Site
					{
						OFFSET 0.000000 0.000000 0.000000 
					}
				}
			}
		}
	}
	JOINT RightUpLeg
	{
		OFFSET -1.305520 -1.794630 0.839290 
		CHANNELS 3 Zrotation Yrotation Xrotation
		JOINT RightLeg
		{
			OFFSET -2.542530 -6.985550 0.000000 
			CHANNELS 3 Zrotation Yrotation Xrotation
			JOINT RightFoot
			{
				OFFSET -2.568260 -7.056230 0.000000 
				CHANNELS 3 Zrotation Yrotation Xrotation
				JOINT RightToeBase
				{
					OFFSET -0.164730 -0.452590 2.363150 
					CHANNELS 3 Zrotation Yrotation Xrotation
					End Site
					{
						OFFSET 0.000000 0.000000 0.000000 
					}
				}
			}
		}
	}
	JOINT Spine
	{
		OFFSET 0.028270 2.035590 -0.193380 
		CHANNELS 3 Zrotation Yrotation Xrotation
		JOINT Spine1
		{
			OFFSET 0.056720 2.048850 -0.042750 
			CHANNELS 3 Zrotation Yrotation Xrotation
			JOINT Neck1
			{
				OFFSET -0.054170 1.746240 0.172020 
				CHANNELS 3 Zrotation Yrotation Xrotation
				JOINT Head
				{
					OFFSET 0.104070 1.761360 -0.123970 
					CHANNELS 3 Zrotation Yrotation Xrotation
					End Site
					{
						OFFSET 0.000000 0.000000 0.000000 
					}
				}
			}
			JOINT LeftArm
			{
				OFFSET 3.362410 1.200890 -0.311210 
				CHANNELS 3 Zrotation Yrotation Xrotation
				JOINT LeftForeArm
				{
					OFFSET 4.983000 -0.000000 -0.000000 
					CHANNELS 3 Zrotation Yrotation Xrotation
					JOINT LeftHand
					{
						OFFSET 3.483560 -0.000000 -0.000000 
						CHANNELS 3 Zrotation Yrotation Xrotation
						JOINT LeftHandIndex1
						{
							OFFSET 0.715260 -0.000000 -0.000000 
							CHANNELS 3 Zrotation Yrotation Xrotation
							End Site
							{
								OFFSET 0.000000 0.000000 0.000000 
							}
						}
					}
				}
			}
			JOINT RightArm
			{
				OFFSET -3.136600 1.374050 -0.404650 
				CHANNELS 3 Zrotation Yrotation Xrotation
				JOINT RightForeArm
				{
					OFFSET -5.241900 -0.000000 -0.000000 
					CHANNELS 3 Zrotation Yrotation Xrotation
					JOINT RightHand
					{
						OFFSET -3.444170 -0.000000 -0.000000 
						CHANNELS 3 Zrotation Yrotation Xrotation
						JOINT RightHandIndex1
						{
							OFFSET -0.622530 -0.000000 -0.000000 
							CHANNELS 3 Zrotation Yrotation Xrotation
							End Site
							{
								OFFSET 0.000000 0.000000 0.000000 
							}
						}
					}
				}
			}
		}
	}
}
MOTION
Frames: 13
Frame Time: 0.041667
50.008960 16.373870 3.648797 -158.893087 59.003424 -174.254975 -16.535485 -18.052392 -17.536964 7.853834 19.532649 57.569379 -1.598554 8.207646 -7.580761 0.023700 0.994600 2.734000 27.120227 19.897453 -23.307028 -6.152794 -19.329303 51.387460 1.143893 -7.474470 0.965441 -5.674700 14.105500 -43.661800 1.449144 2.090934 3.031220 -6.351108 1.749057 6.506772 3.120107 9.396058 5.738221 -4.125600 4.453100 1.454900 -96.679462 18.335264 33.501825 78.033071 -62.930373 -68.346958 0.062806 -5.663959 -23.614244 -7.125000 0.000000 0.000000 95.346195 -17.107785 50.418277 -97.126161 66.096540 -74.977483 0.737022 2.511016 -23.741198 7.125000 0.000000 0.000000 
50.326389 16.356756 3.685486 -159.285781 57.626034 -173.772915 -16.056032 -19.400223 -17.641466 8.110572 19.775712 58.364216 -1.366295 7.734209 -8.739758 0.017600 0.855800 2.352200 25.853978 23.561343 -22.001235 -4.529853 -18.174677 46.209829 0.673017 -6.038456 1.231168 -6.190500 14.610400 -45.741400 1.517042 1.943271 3.055343 -6.334300 1.633328 6.477463 2.196786 10.617799 5.099817 -4.840500 4.949200 1.161600 -97.166241 18.096192 32.949656 78.142082 -62.979605 -68.403509 0.072665 -5.686890 -23.850675 -7.125000 0.000000 0.000000 95.984175 -17.180647 50.222021 -96.439186 66.107238 -74.603785 0.751183 2.562673 -23.522679 7.125000 0.000000 0.000000 
50.635848 16.324052 3.725224 -159.083004 56.144141 -172.996848 -15.217946 -20.690109 -17.695851 8.445020 20.024719 59.326519 -1.082898 7.135517 -9.868099 0.008600 0.597800 1.642800 25.352192 26.712848 -20.483637 -3.321888 -17.109725 42.024997 0.471178 -5.536844 1.371735 -6.464900 14.864200 -46.820300 1.604138 1.845322 3.090425 -6.461720 1.576895 6.407705 1.243559 11.886915 4.468123 -5.580000 5.467700 0.889100 -97.511163 17.920928 32.471978 78.643337 -63.214341 -68.781227 0.078268 -5.678695 -24.164148 -7.125000 0.000000 0.000000 96.573952 -17.320295 50.009351 -96.046910 66.127951 -74.397651 0.768106 2.585988 -23.111986 7.125000 0.000000 0.000000 
50.933936 16.282322 3.768946 -158.404976 54.512088 -172.224903 -14.128154 -21.937044 -17.485675 8.819790 20.234228 60.342196 -0.777428 6.477842 -10.884085 0.001000 0.204100 0.560600 25.826979 28.680828 -18.784522 -2.556461 -16.255957 39.120542 0.471132 -5.657786 1.308065 -6.256700 14.672600 -46.003600 1.706060 1.778488 3.144577 -6.750003 1.578440 6.280611 0.268091 13.190854 3.894591 -6.324000 6.009000 0.696500 -97.659787 17.787881 32.183627 79.426771 -63.571031 -69.376986 0.082190 -5.647690 -24.484394 -7.125000 0.000000 0.000000 97.134741 -17.524516 49.743104 -96.003075 66.171825 -74.395820 0.780623 2.584624 -22.639876 7.125000 0.000000 0.000000 
51.216434 16.242468 3.814779 -157.225692 52.804409 -171.471479 -12.783578 -23.099274 -16.936747 9.192619 20.363917 61.284410 -0.465006 5.786631 -11.731117 0.001700 -0.266100 -0.731000 27.352283 29.080350 -17.135308 -2.154349 -15.665127 37.453096 0.528731 -5.865003 1.163965 -5.700700 14.131900 -43.768200 1.820796 1.766983 3.209789 -7.209929 1.651056 6.067458 -0.702800 14.519277 3.401590 -7.035300 6.573400 0.607200 -97.616996 17.708444 32.138842 80.309818 -63.958279 -70.036747 0.087678 -5.608020 -24.709248 -7.125000 0.000000 0.000000 97.667746 -17.762525 49.442968 -96.257024 66.230820 -74.566746 0.783574 2.566739 -22.229384 7.125000 0.000000 0.000000 
51.486624 16.215273 3.863542 -156.028248 51.060656 -171.084354 -11.496182 -24.224065 -16.008374 9.502638 20.396521 62.013937 -0.172135 5.128440 -12.406095 0.013200 -0.742400 -2.040200 29.396860 28.032692 -15.705214 -2.009276 -15.316369 36.762786 0.583311 -5.964678 0.880458 -5.188100 13.592500 -41.629100 1.933539 1.793573 3.286695 -7.705872 1.760859 5.799185 -1.627742 15.875041 2.971438 -7.676700 7.161500 0.610300 -97.423861 17.678920 32.327511 81.097238 -64.285845 -70.591887 0.100517 -5.580339 -24.762185 -7.125000 0.000000 0.000000 98.153033 -17.977556 49.173878 -96.631823 66.289197 -74.810159 0.778593 2.546635 -21.915972 7.125000 0.000000 0.000000 
51.742513 16.199917 3.912188 -154.781968 49.490831 -170.803021 -10.205824 -25.195710 -14.931287 9.743206 20.348263 62.519545 0.096503 4.514600 -12.925065 0.030900 -1.134700 -3.119600 31.570819 26.171402 -14.677168 -1.986620 -15.130338 36.596516 0.581440 -5.830650 0.539296 -4.684300 13.019200 -39.440400 2.039466 1.936839 3.359771 -8.219313 1.934627 5.492275 -2.517218 17.250987 2.556749 -8.254600 7.762900 0.669500 -97.158733 17.700633 32.662142 81.725016 -64.538541 -71.046603 0.131058 -5.554637 -24.688953 -7.125000 0.000000 0.000000 98.568454 -18.112285 48.978319 -96.943637 66.324978 -75.010783 0.771496 2.531941 -21.651417 7.125000 0.000000 0.000000 
51.990901 16.203668 3.961537 -153.904200 47.981771 -170.793143 -9.137008 -26.176779 -13.817561 9.884467 20.253988 62.753729 0.323439 3.990571 -13.296754 0.049600 -1.436800 -3.951400 33.405349 23.901197 -14.022536 -2.005356 -15.014562 36.599948 0.613273 -5.829176 0.196167 -4.653800 12.983000 -39.305000 2.130222 2.112430 3.430441 -8.614166 2.105903 5.215812 -3.358951 18.644477 2.098041 -8.771100 8.366300 0.732100 -96.876066 17.774343 33.075628 82.106308 -64.686538 -71.325212 0.154926 -5.537369 -24.524294 -7.125000 0.000000 0.000000 98.900788 -18.137482 48.906208 -97.019711 66.332778 -75.071888 0.769718 2.530853 -21.351700 7.125000 0.000000 0.000000 
52.229559 16.223478 4.010418 -152.661414 46.552113 -170.396607 -7.702735 -27.039335 -12.841641 9.977057 20.116761 62.797816 0.544265 3.447623 -13.476840 0.065800 -1.655500 -4.554600 35.378126 21.735336 -13.620049 -1.986746 -14.897421 36.462775 0.735452 -6.194151 0.001529 -5.133400 13.532500 -41.395900 2.240421 2.384041 3.487670 -8.983550 2.320629 4.961037 -4.141283 20.020895 1.572293 -9.220600 8.950200 0.757100 -96.625715 17.881844 33.530173 82.218282 -64.730806 -71.435305 0.187984 -5.531422 -24.350867 -7.125000 0.000000 0.000000 99.134243 -18.058935 48.943543 -96.845474 66.305414 -74.975244 0.776462 2.538713 -20.980203 7.125000 0.000000 0.000000 
52.459191 16.255127 4.059767 -151.344311 45.194843 -169.826260 -6.089919 -27.798637 -12.057512 10.031629 19.963423 62.703789 0.758725 2.892019 -13.503355 0.078200 -1.803400 -4.962700 37.354961 19.840443 -13.284726 -1.910687 -14.733749 36.084464 0.908024 -6.780727 0.017022 -5.859700 14.291000 -44.415900 2.355705 2.741088 3.529814 -9.293182 2.565626 4.729220 -4.849615 21.338439 0.993824 -9.604200 9.494900 0.737400 -96.411465 18.005558 34.004857 82.118750 -64.694496 -71.424965 0.229594 -5.528764 -24.228108 -7.125000 0.000000 0.000000 99.289337 -17.915148 49.048107 -96.485573 66.251501 -74.760835 0.790990 2.551986 -20.576282 7.125000 0.000000 0.000000 
52.678625 16.298498 4.109234 -149.627535 43.739973 -168.883364 -4.000200 -28.492297 -11.523040 10.081443 19.799964 62.524424 0.990583 2.254330 -13.339299 0.086400 -1.896000 -5.218300 39.679035 18.212056 -12.963323 -1.769514 -14.513827 35.437846 1.099164 -7.470767 0.184968 -6.569900 14.958700 -47.228100 2.496162 3.147729 3.547778 -9.631186 2.837423 4.509977 -5.499444 22.580681 0.393323 -9.934600 9.996500 0.686100 -96.213392 18.141989 34.494198 81.938975 -64.631264 -71.372097 0.271343 -5.525931 -24.176222 -7.125000 0.000000 0.000000 99.374042 -17.757372 49.185301 -96.101502 66.183234 -74.520088 0.808125 2.561634 -20.224918 7.125000 0.000000 0.000000 
52.888096 16.341987 4.160810 -147.944156 42.143501 -167.960673 -1.763614 -29.173800 -11.237143 10.116735 19.650860 62.273629 1.213037 1.606763 -12.994074 0.091200 -1.947500 -5.360700 42.063831 16.847377 -12.560688 -1.602880 -14.265294 34.674353 1.290635 -8.155493 0.130658 -6.937700 15.279200 -48.638300 2.637488 3.555459 3.541637 -9.980997 3.107799 4.293985 -6.063083 23.692172 -0.175145 -10.200900 10.436300 0.628100 -96.011012 18.275349 34.983117 81.778424 -64.576356 -71.332525 0.313345 -5.520282 -24.168592 -7.125000 0.000000 0.000000 99.428254 -17.627114 49.298977 -95.834227 66.121031 -74.342651 0.821769 2.563724 -19.994059 7.125000 0.000000 0.000000 
53.085141 16.388288 4.209221 -146.641415 40.456203 -167.156955 0.367450 -29.825178 -11.314410 10.104927 19.547116 61.910782 1.377042 1.098514 -12.523087 0.094600 -1.983500 -5.460100 44.155740 15.765568 -12.311509 -1.442769 -14.038481 33.934609 1.510681 -8.932826 -0.135688 -7.067800 15.388700 -49.130300 2.748347 3.936063 3.499210 -10.380146 3.359947 4.120752 -6.519081 24.605490 -0.670599 -10.406500 10.789000 0.555300 -95.816548 18.430432 35.446749 81.583210 -64.513270 -71.270977 0.344651 -5.512278 -24.127403 -7.125000 0.000000 0.000000 99.481929 -17.557350 49.359218 -95.789323 66.082376 -74.288660 0.827197 2.553089 -19.909224 7.125000 0.000000 0.000000 
